<svg width="1168" height="1168" viewBox="0 0 1168 1168" fill="none" xmlns="http://www.w3.org/2000/svg">
<rect width="1168" height="1168" fill="#1B4332"/>
<path d="M498.351 908.12L273.706 266.191C271.204 259.039 276.512 251.558 284.089 251.558H438.592C443.282 251.558 447.457 254.532 448.989 258.965L670.86 900.893C673.329 908.038 668.023 915.487 660.463 915.487H508.734C504.059 915.487 499.895 912.532 498.351 908.12Z" fill="white"/>
<path d="M719.631 259.113L620.125 560.899C619.32 563.341 619.396 565.988 620.339 568.379L699.755 769.738C703.5 779.234 717.036 778.951 720.381 769.306L894.864 266.161C897.343 259.015 892.036 251.557 884.472 251.557H730.078C725.33 251.557 721.118 254.604 719.631 259.113Z" fill="white"/>
</svg>
